<?xml version="1.0" standalone="no"?>
<!DOCTYPE svg PUBLIC "-//W3C//DTD SVG 20010904//EN"
 "http://www.w3.org/TR/2001/REC-SVG-20010904/DTD/svg10.dtd">
<svg version="1.0" xmlns="http://www.w3.org/2000/svg"
 width="800.000000pt" height="800.000000pt" viewBox="0 0 800.000000 800.000000"
 preserveAspectRatio="xMidYMid meet">

<g transform="translate(0.000000,800.000000) scale(0.100000,-0.100000)"
fill="#000000" stroke="none">
<path d="M2345 7218 c-47 -5 -88 -17 -130 -38 -79 -41 -268 -161 -305 -194
-17 -14 -36 -26 -44 -26 -8 0 -16 -7 -19 -15 -4 -8 -23 -25 -44 -38 -21 -14
-51 -36 -68 -51 -16 -14 -33 -26 -37 -26 -19 0 -367 -342 -464 -455 -32 -38
-61 -72 -64 -75 -3 -3 -9 -12 -15 -21 -9 -15 -161 -219 -182 -244 -5 -5 -22
-32 -37 -60 -16 -27 -32 -52 -36 -55 -4 -3 -15 -21 -25 -40 -9 -19 -23 -42
-30 -50 -7 -8 -25 -40 -41 -70 -15 -30 -33 -62 -39 -70 -6 -8 -26 -49 -44 -90
-19 -41 -44 -97 -56 -125 -13 -27 -38 -88 -55 -135 -18 -47 -37 -94 -41 -105
-5 -11 -16 -42 -24 -70 -9 -27 -20 -59 -25 -70 -5 -11 -14 -38 -19 -60 -5 -22
-17 -67 -26 -100 -58 -218 -86 -389 -111 -685 -14 -167 -14 -222 -4 -385 21
-337 53 -545 125 -820 41 -158 142 -443 166 -470 5 -5 9 -16 9 -24 0 -17 94
-214 121 -252 10 -14 21 -37 24 -52 4 -15 11 -27 16 -27 5 0 9 -7 9 -15 0 -8
4 -15 8 -15 5 0 18 -19 28 -42 10 -24 43 -79 73 -123 30 -44 72 -107 94 -140
22 -33 52 -74 66 -91 14 -17 44 -55 66 -84 52 -67 108 -132 170 -196 28 -28
64 -66 82 -85 17 -19 45 -45 62 -59 17 -14 33 -32 36 -40 3 -8 22 -26 42 -40
20 -14 44 -32 52 -40 25 -24 144 -124 167 -140 12 -8 47 -34 77 -57 31 -24 60
-43 66 -43 5 0 11 -3 13 -7 4 -10 120 -91 145 -101 10 -4 43 -24 74 -44 30
-20 87 -53 125 -74 38 -20 76 -41 84 -45 37 -20 212 -100 261 -119 30 -11 63
-25 74 -30 34 -15 268 -93 305 -101 19 -4 62 -15 95 -24 189 -51 357 -79 640
-106 221 -21 728 2 885 41 19 4 76 16 125 25 145 27 461 118 570 165 11 4 56
23 100 40 44 18 100 42 125 55 25 13 61 30 80 38 19 9 52 27 73 41 21 14 44
26 52 26 7 0 20 6 27 13 7 6 27 19 43 27 17 8 46 26 65 39 19 12 44 27 55 32
28 13 58 33 170 114 53 39 110 80 128 93 18 13 43 34 57 46 14 13 30 25 37 27
12 4 213 190 270 249 36 37 37 39 82 85 51 52 125 139 151 175 13 19 27 37 32
40 8 6 37 46 95 130 21 30 44 63 53 72 17 19 118 180 173 276 187 330 346 765
408 1122 38 217 79 599 79 740 0 85 -39 426 -61 530 -6 30 -15 73 -19 95 -15
74 -40 180 -56 235 -8 30 -20 75 -25 100 -6 25 -14 54 -20 65 -11 24 -79 211
-87 240 -2 11 -8 25 -13 30 -4 6 -15 33 -24 60 -10 28 -23 57 -30 65 -7 8 -15
26 -18 40 -8 34 -106 216 -200 371 -69 115 -70 118 -55 132 7 7 20 16 28 20 8
4 35 20 60 35 38 24 45 34 48 63 3 30 -1 37 -23 47 -21 10 -32 8 -73 -15 -26
-14 -59 -34 -74 -44 -14 -11 -30 -19 -35 -19 -15 0 -53 45 -53 61 0 19 33 56
58 63 23 8 64 79 56 99 -3 8 -13 18 -22 21 -9 3 -22 8 -28 11 -6 3 -38 -17
-72 -45 -33 -27 -64 -50 -69 -50 -19 0 -43 37 -43 65 0 18 9 37 23 50 31 27
67 80 67 97 0 21 -33 48 -57 48 -13 0 -40 -21 -70 -55 l-49 -54 -61 62 c-34
34 -73 73 -86 87 -86 87 -291 270 -302 270 -4 0 -24 15 -44 33 -74 64 -91 77
-105 77 -8 0 -16 4 -18 8 -4 11 -66 56 -111 81 -76 42 -163 15 -201 -62 -18
-37 -18 -43 -1 -175 9 -75 21 -153 26 -173 15 -60 11 -79 -31 -141 -22 -33
-40 -62 -40 -65 0 -2 -18 -30 -39 -63 -22 -32 -42 -68 -46 -79 -3 -12 -11 -21
-16 -21 -5 0 -9 -4 -9 -10 0 -10 -18 -42 -139 -240 -46 -74 -92 -145 -103
-156 -10 -12 -45 -29 -76 -38 -31 -9 -77 -23 -102 -30 -25 -8 -71 -22 -103
-31 -103 -31 -155 -109 -125 -190 12 -36 86 -109 163 -162 37 -26 182 -170
203 -200 18 -29 13 -36 -72 -94 -56 -38 -66 -48 -66 -74 0 -54 37 -70 88 -38
15 10 50 34 78 55 28 21 56 38 61 38 13 0 43 -44 43 -63 0 -14 -10 -25 -82
-93 -42 -39 -48 -71 -19 -98 24 -22 64 -12 92 22 11 14 33 34 49 43 29 18 29
18 50 -8 11 -14 20 -32 20 -39 0 -19 -22 -64 -31 -64 -4 0 -16 -16 -25 -36
-16 -33 -16 -40 -3 -63 21 -38 52 -38 85 -2 33 37 37 38 51 9 59 -127 112
-335 131 -513 13 -119 -3 -461 -27 -570 -56 -255 -158 -491 -282 -655 -11 -14
-24 -35 -29 -47 -5 -13 -14 -23 -20 -23 -5 0 -10 -5 -10 -11 0 -26 -157 -188
-295 -306 -175 -148 -425 -277 -675 -347 -225 -62 -586 -77 -805 -32 -38 8
-81 17 -95 19 -94 19 -295 94 -400 149 -114 61 -128 69 -179 103 -24 17 -53
35 -64 42 -11 6 -22 15 -26 20 -3 4 -22 20 -41 35 -76 58 -202 186 -324 329
-29 34 -96 134 -96 143 0 3 -11 21 -24 41 -30 44 -97 184 -130 273 -74 197
-105 381 -106 623 0 334 41 520 187 834 7 17 23 46 35 65 11 19 28 49 37 65 9
17 30 50 46 75 16 25 34 52 40 61 55 88 265 303 350 358 22 14 42 28 45 31 14
14 70 49 115 72 28 14 74 37 104 52 115 59 176 136 202 255 18 87 -28 219
-101 284 -47 44 -131 83 -195 92 -24 4 -43 11 -40 15 9 14 110 57 225 96 101
34 120 44 166 89 69 67 88 111 87 196 -1 54 -7 78 -28 118 -80 147 -209 181
-415 109 -156 -55 -181 -64 -254 -97 -36 -17 -72 -31 -80 -31 -21 0 -27 12
-14 28 55 66 47 240 -15 312 -9 11 -17 25 -17 30 0 16 -69 78 -103 94 -80 35
-134 43 -222 34z m128 -203 c20 -8 43 -25 51 -37 29 -41 14 -178 -20 -178 -6
0 -19 -9 -29 -20 -10 -11 -24 -20 -32 -20 -7 0 -13 -4 -13 -10 0 -5 -9 -10
-20 -10 -11 0 -20 -4 -20 -9 0 -5 -10 -13 -22 -17 -13 -4 -25 -10 -28 -13 -9
-12 -141 -101 -149 -101 -5 0 -14 -7 -21 -15 -7 -8 -39 -33 -72 -56 -94 -64
-118 -93 -120 -144 -2 -37 3 -50 27 -75 40 -42 81 -40 145 5 27 19 53 35 57
35 13 0 67 -70 111 -144 23 -37 42 -70 42 -71 0 -2 16 -38 35 -79 36 -78 45
-136 22 -136 -7 0 -28 -14 -45 -31 -26 -26 -32 -39 -32 -74 0 -36 5 -48 31
-69 17 -14 41 -29 55 -32 28 -7 81 15 109 46 19 21 101 80 111 80 3 0 33 20
68 44 35 23 108 65 163 91 146 72 210 71 260 -4 24 -35 31 -95 13 -106 -5 -3
-10 -16 -10 -27 0 -22 -35 -58 -56 -58 -7 0 -14 -3 -16 -7 -1 -5 -42 -27 -90
-51 -48 -23 -93 -48 -100 -55 -7 -7 -27 -19 -45 -26 -17 -7 -39 -21 -49 -32
-9 -10 -21 -19 -26 -19 -5 0 -29 -19 -53 -41 -25 -23 -54 -48 -65 -56 -35 -25
-160 -146 -160 -155 0 -5 -21 -32 -47 -60 -27 -27 -52 -57 -57 -66 -5 -9 -19
-28 -31 -42 -13 -14 -26 -35 -30 -47 -3 -13 -11 -23 -16 -23 -5 0 -9 -5 -9
-11 0 -7 -38 -88 -85 -182 -47 -93 -85 -175 -85 -182 0 -7 -7 -26 -15 -41 -8
-16 -15 -37 -15 -47 0 -9 -4 -25 -9 -35 -14 -29 -31 -87 -31 -110 0 -11 -4
-24 -10 -27 -5 -3 -10 -21 -10 -40 0 -19 -4 -37 -10 -40 -5 -3 -10 -29 -10
-56 0 -28 -4 -59 -10 -69 -14 -27 -14 -451 0 -546 7 -44 16 -87 21 -96 5 -10
9 -31 9 -48 0 -17 4 -38 9 -48 5 -9 14 -37 21 -62 7 -25 16 -53 21 -62 5 -10
9 -25 9 -34 0 -15 20 -66 41 -106 5 -10 9 -24 9 -32 0 -9 11 -32 25 -52 14
-20 29 -51 34 -70 5 -18 19 -47 30 -63 12 -16 21 -32 21 -37 0 -4 10 -21 23
-38 13 -17 31 -47 40 -67 9 -20 23 -42 32 -49 8 -7 15 -18 15 -26 0 -7 8 -19
18 -26 9 -7 30 -31 47 -53 39 -53 267 -285 280 -285 5 0 29 -17 52 -38 59 -53
127 -102 163 -119 8 -4 23 -15 33 -24 10 -9 57 -36 105 -61 48 -24 96 -49 107
-55 65 -34 109 -53 123 -53 10 0 30 -7 46 -15 15 -8 37 -15 47 -15 11 0 19 -4
19 -10 0 -5 15 -10 34 -10 19 0 37 -4 40 -9 3 -5 20 -11 38 -14 80 -14 104
-20 115 -29 7 -6 77 -12 155 -15 79 -2 153 -9 164 -15 12 -6 42 -7 65 -4 52 7
126 13 267 22 56 3 105 10 108 15 3 5 15 9 26 9 12 0 37 4 55 10 18 5 50 15
71 21 20 6 46 14 57 18 11 5 47 17 80 26 64 19 188 75 193 88 2 4 9 7 15 7 18
0 153 70 176 91 11 10 23 19 26 19 13 0 140 87 159 108 11 12 24 22 30 22 14
0 286 273 286 287 0 5 12 20 26 34 23 21 49 57 89 120 5 10 26 41 45 70 56 85
58 89 106 189 25 52 48 102 52 110 5 8 16 42 27 75 24 79 44 125 54 125 5 0
25 -11 45 -25 20 -14 45 -25 56 -25 10 0 22 -5 25 -10 8 -13 138 -13 152 1 17
17 23 -26 7 -57 -8 -14 -14 -37 -14 -50 0 -13 -4 -32 -9 -42 -37 -74 -51 -106
-51 -118 0 -8 -4 -22 -10 -32 -5 -9 -16 -34 -25 -54 -34 -83 -45 -106 -60
-118 -8 -7 -15 -23 -15 -35 0 -12 -7 -28 -15 -35 -8 -7 -15 -18 -15 -24 0 -6
-14 -22 -30 -35 -17 -13 -30 -33 -30 -46 0 -12 -9 -30 -20 -40 -11 -10 -20
-23 -20 -30 0 -6 -11 -22 -25 -35 -14 -13 -25 -34 -25 -46 0 -13 -8 -29 -18
-36 -10 -7 -24 -28 -32 -46 -7 -19 -33 -52 -57 -75 -23 -22 -43 -45 -43 -51 0
-15 -172 -186 -186 -186 -6 0 -24 -15 -40 -34 -16 -18 -56 -50 -89 -71 -33
-21 -62 -41 -65 -45 -3 -3 -30 -18 -62 -32 -31 -15 -59 -32 -63 -37 -3 -6 -15
-11 -25 -11 -10 0 -34 -13 -52 -30 -18 -16 -43 -30 -56 -30 -13 0 -53 -16 -89
-35 -36 -19 -78 -35 -93 -35 -16 0 -32 -5 -35 -10 -3 -5 -17 -10 -30 -10 -13
0 -26 -4 -29 -9 -4 -5 -25 -12 -49 -16 -53 -8 -103 -25 -145 -47 -18 -10 -48
-18 -67 -18 -18 0 -37 -4 -40 -10 -3 -5 -30 -10 -59 -10 -28 0 -58 -6 -64 -12
-19 -19 -735 -19 -753 0 -7 6 -37 12 -65 12 -29 0 -56 5 -59 10 -3 6 -17 10
-30 10 -13 0 -37 5 -52 11 -15 6 -37 15 -48 19 -11 5 -33 11 -50 15 -16 3 -52
11 -80 16 -27 6 -54 15 -59 20 -6 5 -17 9 -25 9 -9 0 -90 36 -181 81 -223 110
-236 117 -263 138 -21 17 -48 33 -103 60 -23 11 -57 39 -75 61 -19 23 -42 40
-54 40 -12 0 -39 18 -60 40 -21 22 -44 40 -50 40 -14 0 -181 170 -189 193 -3
11 -15 21 -26 24 -11 3 -20 11 -20 18 0 7 -13 25 -30 38 -18 16 -30 35 -30 50
0 14 -10 32 -25 43 -14 10 -25 22 -25 26 0 4 -13 27 -30 51 -16 25 -30 48 -30
52 0 14 -35 81 -52 99 -10 11 -18 30 -18 43 0 13 -11 45 -25 71 -14 26 -25 52
-25 59 0 7 -9 28 -20 48 -11 20 -20 44 -20 55 0 10 -4 21 -9 24 -10 6 -25 64
-22 85 2 8 -2 24 -7 35 -23 51 -32 79 -32 101 0 13 -4 27 -10 30 -5 3 -10 22
-10 41 0 19 -4 34 -10 34 -5 0 -10 24 -10 54 0 30 -4 57 -9 60 -4 3 -11 74
-15 158 -4 84 -12 157 -17 162 -12 13 -12 143 0 150 5 3 12 85 16 181 4 96 11
178 16 181 5 3 9 21 9 40 0 19 5 34 10 34 6 0 10 15 10 34 0 19 5 38 10 41 6
3 10 16 10 28 0 21 19 82 31 102 4 6 10 29 14 52 4 24 11 45 16 49 5 3 9 13 9
23 0 10 11 40 25 67 14 27 25 56 25 65 0 9 9 24 20 34 11 10 20 28 20 40 0 12
9 30 20 40 11 10 20 28 20 40 0 13 7 28 15 35 8 7 15 25 15 41 0 15 5 31 10
34 6 3 10 39 10 80 0 41 -4 77 -10 80 -5 3 -10 23 -10 44 0 22 -6 44 -15 51
-8 7 -15 18 -15 24 0 20 -144 154 -173 161 -15 4 -30 11 -33 16 -3 5 -18 9
-34 9 -16 0 -32 5 -35 10 -3 6 -35 10 -71 10 -36 0 -64 -4 -64 -10 0 -5 -15
-10 -34 -10 -18 0 -39 -7 -46 -15 -7 -8 -22 -15 -33 -15 -45 0 -197 -186 -197
-241 0 -10 -9 -24 -20 -31 -11 -7 -20 -17 -20 -23 0 -6 -20 -51 -45 -99 -25
-49 -45 -98 -45 -108 0 -10 -4 -18 -8 -18 -12 0 -31 -58 -25 -79 3 -10 0 -22
-6 -25 -6 -4 -11 -18 -11 -32 0 -13 -3 -24 -7 -24 -13 0 -33 -52 -33 -82 0
-15 -4 -28 -10 -28 -5 0 -10 -14 -10 -30 0 -17 -4 -38 -9 -48 -6 -9 -13 -38
-16 -64 -3 -26 -10 -50 -16 -53 -5 -4 -9 -26 -9 -51 0 -24 -4 -44 -10 -44 -5
0 -10 -24 -10 -54 0 -30 -4 -58 -10 -61 -5 -3 -10 -37 -10 -76 0 -39 -4 -69
-10 -69 -6 0 -10 -73 -10 -199 0 -123 -4 -202 -10 -206 -13 -8 -13 -62 0 -70
6 -3 10 -52 10 -110 0 -58 4 -107 10 -110 5 -3 10 -28 10 -55 0 -27 5 -52 10
-55 6 -3 10 -28 10 -55 0 -27 5 -52 10 -55 6 -3 10 -21 10 -40 0 -19 4 -36 9
-40 5 -3 12 -36 16 -73 6 -62 13 -89 36 -134 5 -10 9 -27 9 -37 0 -11 5 -23
10 -26 6 -3 10 -17 10 -31 0 -13 4 -24 9 -24 5 0 11 -19 15 -42 8 -53 51 -144
71 -152 8 -3 15 -14 15 -24 0 -10 6 -32 14 -48 7 -16 20 -44 27 -61 8 -18 17
-33 21 -33 5 0 8 -9 8 -19 0 -11 13 -30 29 -43 16 -14 31 -39 35 -59 4 -22 21
-50 46 -74 22 -22 40 -47 40 -58 0 -17 32 -67 73 -111 9 -11 17 -27 17 -36 0
-9 9 -25 20 -35 11 -10 20 -23 20 -30 0 -6 18 -29 40 -50 22 -21 40 -44 40
-50 0 -6 18 -29 40 -50 22 -21 40 -43 40 -48 0 -13 354 -367 367 -367 6 0 13
-9 16 -20 3 -11 14 -23 25 -27 19 -8 47 -30 155 -123 57 -50 83 -68 110 -76 9
-4 17 -10 17 -15 0 -5 6 -9 13 -9 6 0 28 -15 47 -33 39 -37 75 -57 100 -57 9
0 25 -9 35 -20 10 -11 22 -20 28 -20 5 0 17 -8 26 -19 9 -10 36 -22 60 -26 40
-7 85 -27 184 -83 21 -12 46 -22 55 -22 10 0 27 -7 38 -15 10 -8 27 -15 37
-15 9 0 17 -4 17 -10 0 -5 13 -10 29 -10 26 0 108 -35 121 -52 3 -3 47 -9 98
-13 51 -4 95 -12 98 -16 3 -5 21 -9 40 -9 19 0 34 -4 34 -10 0 -6 30 -10 69
-10 39 0 73 -4 76 -10 3 -5 33 -10 65 -10 32 0 62 -4 65 -10 4 -6 58 -10 130
-10 72 0 126 -4 130 -10 4 -6 57 -10 125 -10 68 0 121 4 125 10 3 6 37 10 75
10 38 0 72 4 75 10 3 5 37 10 75 10 38 0 72 4 75 10 3 5 33 10 66 10 33 0 59
4 59 10 0 6 11 10 24 10 14 0 27 4 30 9 3 5 35 12 71 16 36 3 67 11 70 16 4 5
25 9 48 9 26 0 51 8 67 20 14 11 35 20 48 20 12 0 22 5 22 10 0 6 9 10 19 10
11 0 22 4 25 9 4 5 24 12 46 16 22 4 40 11 40 16 0 5 9 9 19 9 22 0 98 37 125
63 11 9 28 17 37 17 10 0 24 6 31 13 7 6 36 23 63 37 28 14 59 33 69 42 11 10
28 18 37 18 10 0 29 11 43 25 14 14 33 25 44 25 10 0 33 16 52 35 19 20 44 35
57 35 13 0 23 5 23 10 0 6 7 10 16 10 20 0 44 24 44 43 0 9 13 18 29 22 16 3
46 21 67 40 22 19 64 56 94 83 30 27 63 52 73 55 9 4 20 15 24 24 8 24 44 63
57 63 14 0 296 284 296 297 0 5 11 20 25 33 14 13 25 29 25 35 0 6 20 31 45
55 25 24 45 48 45 53 0 5 21 31 48 59 26 27 55 66 65 86 9 20 21 38 25 41 10
8 28 39 52 89 12 24 27 46 35 49 9 3 15 18 15 34 0 16 5 29 10 29 6 0 10 6 10
14 0 7 7 19 15 26 8 7 15 23 15 36 0 12 4 26 10 29 6 3 10 14 10 24 0 21 22
71 33 71 4 0 7 9 7 20 0 11 3 20 8 20 11 0 29 49 37 98 4 23 10 42 13 42 11 0
32 52 32 77 0 13 5 32 10 43 6 11 15 29 20 40 6 11 10 36 10 55 0 19 4 43 10
53 5 9 12 43 15 74 4 32 11 60 16 63 5 4 9 42 9 86 0 48 4 79 10 79 7 0 10 25
8 65 -2 58 1 68 23 90 l25 25 54 -27 c46 -24 69 -28 143 -30 87 -1 112 -7 90
-21 -6 -4 -13 -32 -17 -62 -3 -30 -10 -99 -15 -153 -5 -54 -14 -104 -19 -110
-5 -7 -12 -32 -16 -57 -12 -100 -19 -130 -27 -136 -5 -3 -9 -21 -9 -40 0 -19
-4 -34 -10 -34 -5 0 -10 -15 -10 -34 0 -19 -4 -37 -9 -40 -5 -4 -12 -24 -16
-46 -4 -22 -11 -40 -16 -40 -5 0 -9 -10 -9 -22 0 -25 -22 -93 -33 -104 -4 -4
-7 -16 -7 -26 0 -10 -4 -18 -8 -18 -5 0 -15 -19 -22 -42 -15 -50 -48 -125 -96
-221 -19 -37 -34 -75 -34 -82 0 -8 -4 -15 -10 -15 -5 0 -10 -6 -10 -14 0 -7
-7 -19 -15 -26 -8 -7 -30 -42 -48 -77 -50 -101 -51 -103 -59 -103 -5 0 -8 -6
-8 -14 0 -7 -6 -19 -14 -25 -8 -7 -24 -31 -36 -54 -12 -22 -31 -52 -42 -66
-11 -15 -46 -62 -79 -106 -33 -44 -78 -99 -99 -123 -22 -23 -40 -46 -40 -50 0
-12 -304 -312 -317 -312 -7 0 -13 -4 -13 -9 0 -19 -295 -247 -360 -278 -8 -4
-26 -17 -39 -29 -13 -12 -48 -34 -78 -49 -29 -15 -56 -31 -59 -36 -3 -5 -22
-16 -42 -25 -20 -10 -44 -24 -53 -31 -23 -20 -91 -53 -107 -53 -8 0 -25 -9
-39 -20 -14 -11 -32 -20 -39 -20 -14 0 -55 -20 -64 -31 -3 -4 -20 -10 -39 -14
-19 -4 -50 -16 -68 -26 -19 -11 -42 -19 -53 -19 -10 0 -22 -4 -25 -10 -3 -5
-13 -10 -21 -10 -8 0 -33 -9 -57 -19 -49 -22 -116 -41 -169 -48 -21 -3 -38 -9
-38 -13 0 -4 -12 -10 -27 -13 -16 -3 -68 -15 -118 -27 -97 -23 -254 -48 -350
-56 -33 -3 -64 -10 -69 -15 -13 -12 -639 -12 -652 0 -5 5 -43 12 -84 15 -130
9 -241 24 -365 51 -66 14 -135 28 -152 32 -18 3 -33 10 -33 14 0 5 -12 9 -26
9 -25 0 -96 20 -159 45 -16 7 -55 20 -85 30 -30 10 -73 26 -95 36 -22 10 -62
27 -90 39 -93 40 -339 165 -359 182 -11 10 -29 21 -40 24 -20 7 -106 61 -116
74 -3 4 -12 10 -20 13 -8 4 -27 15 -41 25 -71 46 -145 97 -149 102 -8 8 -123
103 -145 120 -27 20 -321 318 -365 370 -19 22 -37 46 -39 51 -2 6 -21 27 -42
47 -21 21 -39 42 -39 47 0 6 -10 22 -22 35 -40 45 -84 104 -104 140 -10 19
-29 46 -41 60 -12 14 -33 48 -48 77 -14 29 -31 58 -38 65 -7 7 -25 38 -40 68
-16 30 -37 71 -47 90 -42 78 -110 230 -110 244 0 8 -4 18 -10 21 -5 3 -10 17
-10 30 0 13 -4 25 -8 27 -4 2 -25 57 -47 123 -21 66 -42 124 -47 130 -4 5 -8
24 -8 42 0 18 -4 33 -9 33 -5 0 -11 17 -14 38 -3 20 -12 66 -22 102 -21 83
-35 160 -41 230 -3 30 -10 59 -15 65 -5 5 -9 39 -9 75 0 36 -5 71 -11 77 -16
16 -16 696 0 701 7 2 11 31 11 76 0 40 4 76 9 82 5 5 12 29 15 54 7 59 22 145
34 195 6 22 16 67 22 100 7 33 16 68 21 77 5 10 9 27 9 37 0 11 4 22 9 25 4 3
11 20 15 37 3 17 12 45 19 62 8 18 22 59 32 92 19 65 33 99 89 217 20 42 36
82 36 87 0 6 10 27 21 48 79 140 115 205 142 253 16 30 34 61 40 69 6 7 16 21
22 31 21 36 84 126 104 147 12 12 21 26 21 30 0 5 12 21 28 37 15 16 34 39 42
52 24 35 112 135 149 168 18 17 81 77 140 132 129 124 176 164 188 164 5 0 20
12 34 26 40 43 316 244 335 244 5 0 64 40 74 50 3 3 21 14 40 25 108 60 140
66 203 40z m3611 -249 c40 -29 85 -66 101 -82 17 -16 46 -40 65 -54 61 -44
340 -324 340 -341 0 -9 -20 -39 -45 -67 -25 -27 -45 -55 -45 -62 0 -24 42 -70
64 -70 12 0 39 17 61 40 37 38 75 53 75 29 0 -17 -20 -49 -30 -49 -6 0 -21
-10 -35 -22 -43 -37 -25 -118 27 -118 25 0 69 23 92 49 11 12 25 21 32 21 30
0 23 -24 -20 -61 -50 -44 -59 -78 -29 -111 22 -24 45 -23 101 7 l47 26 27 -33
c15 -17 36 -51 47 -74 11 -23 26 -48 33 -55 7 -8 24 -38 37 -66 14 -29 28 -53
33 -53 4 0 8 -8 8 -19 0 -10 7 -24 15 -31 8 -7 15 -18 15 -24 0 -7 20 -52 45
-102 24 -49 45 -94 45 -100 0 -5 11 -32 24 -60 14 -27 33 -80 43 -119 10 -38
21 -72 24 -75 3 -3 9 -26 13 -52 4 -26 11 -50 17 -53 5 -4 9 -15 9 -26 0 -10
4 -27 10 -37 13 -24 59 -212 75 -307 7 -44 19 -98 25 -120 13 -42 20 -98 40
-338 11 -131 11 -152 -4 -190 -13 -34 -24 -46 -58 -60 -58 -26 -119 -16 -159
25 l-29 31 0 128 c0 74 -4 130 -10 134 -5 3 -10 37 -10 76 0 39 -4 69 -10 69
-5 0 -10 16 -10 37 0 42 -30 143 -42 143 -4 0 -8 14 -8 30 0 26 -14 64 -30 80
-3 3 -11 19 -18 35 -8 17 -20 43 -28 58 -8 16 -14 34 -14 41 0 23 -30 73 -55
92 -14 10 -25 25 -25 32 0 28 -113 124 -189 161 -37 17 -63 21 -148 21 -57 0
-103 -4 -103 -9 0 -5 -21 -12 -47 -16 -42 -6 -57 -16 -116 -73 -62 -61 -107
-130 -107 -164 0 -8 -4 -18 -9 -24 -15 -15 -18 -248 -4 -266 7 -8 15 -40 19
-71 4 -32 11 -60 15 -63 5 -3 9 -18 9 -33 0 -15 4 -31 9 -37 11 -12 33 -268
31 -359 -2 -108 -20 -288 -31 -307 -5 -10 -9 -24 -9 -32 0 -8 -12 -24 -27 -36
-24 -19 -38 -21 -96 -18 -57 3 -71 8 -95 31 -26 27 -27 30 -23 125 12 300 -3
609 -30 636 -5 6 -9 25 -9 42 0 18 -4 35 -8 38 -5 3 -14 30 -21 61 -7 31 -24
82 -38 113 -50 115 -65 148 -89 193 -25 48 -32 99 -14 99 6 0 10 5 10 12 0 7
16 28 35 48 47 48 56 99 24 129 -34 31 -62 26 -102 -18 -19 -21 -36 -44 -39
-51 -6 -18 -28 -3 -28 19 0 9 18 35 41 56 35 35 40 44 35 73 -3 19 -10 40 -17
48 -15 18 -53 18 -69 -1 -7 -8 -17 -15 -22 -15 -5 0 -18 -9 -30 -20 -20 -19
-38 -19 -38 1 0 5 14 23 30 41 73 76 -8 161 -88 93 -17 -14 -32 -25 -34 -25
-3 0 -54 50 -113 110 -60 61 -113 110 -117 110 -5 0 -23 13 -41 30 -30 28 -30
30 -10 30 12 0 25 5 28 10 3 6 15 10 26 10 10 0 62 14 114 31 77 25 99 37 118
62 25 35 43 65 53 87 4 8 15 24 24 35 17 19 25 33 70 121 11 23 29 50 38 60
10 10 21 26 25 34 4 8 13 24 19 35 7 11 28 45 47 75 18 30 41 66 50 80 10 14
25 42 34 62 10 20 22 40 28 44 6 3 14 16 20 27 10 24 31 59 39 67 3 3 14 23
23 46 16 36 17 55 9 170 -5 71 -12 137 -16 147 -13 28 3 20 78 -37z m-2816
-95 c19 -11 12 -102 -8 -111 -8 -4 -25 -12 -37 -18 -13 -7 -30 -12 -38 -12 -8
0 -24 -4 -35 -10 -11 -5 -29 -14 -40 -20 -11 -5 -27 -10 -35 -10 -8 0 -15 -4
-15 -9 0 -4 -17 -11 -37 -14 -36 -6 -244 -104 -295 -139 -14 -10 -31 -18 -38
-18 -6 0 -28 -13 -48 -28 -20 -16 -49 -34 -64 -40 -27 -11 -29 -10 -58 41 -16
28 -30 57 -30 62 0 9 76 62 105 74 6 2 28 16 50 31 39 26 226 120 240 120 7 0
40 14 120 50 22 9 66 23 98 30 31 7 57 17 57 22 0 10 91 10 108 -1z"/>
<path d="M6172 6336 c-55 -55 -33 -152 40 -177 42 -14 76 -3 111 36 26 28 19
106 -13 140 -32 34 -104 34 -138 1z"/>
<path d="M6252 5888 c-7 -7 -12 -27 -12 -45 0 -28 -4 -33 -23 -33 -31 0 -47
-18 -47 -55 0 -24 -6 -33 -30 -43 -41 -19 -49 -56 -19 -88 13 -14 34 -24 50
-24 25 0 70 -15 121 -41 54 -27 148 16 160 74 8 39 0 83 -18 98 -8 6 -14 17
-14 24 0 7 -13 25 -30 38 -16 14 -30 32 -30 39 0 7 -11 26 -25 41 -27 28 -63
35 -83 15z"/>
<path d="M5720 5681 c-58 -68 -51 -119 22 -166 36 -22 73 -13 116 28 42 41 42
75 -2 121 -29 31 -39 36 -77 35 -29 0 -49 -7 -59 -18z"/>
</g>
</svg>
